<?xml version="1.0" encoding="iso-8859-1"?>
<!-- Uploaded to: SVG Repo, www.svgrepo.com, Generator: SVG Repo Mixer Tools -->
<svg height="800px" width="800px" version="1.1" id="Layer_1" xmlns="http://www.w3.org/2000/svg" xmlns:xlink="http://www.w3.org/1999/xlink" 
	 viewBox="0 0 511.978 511.978" xml:space="preserve">
<path style="fill:#DA4453;" d="M69.044,224.232c6.625-2.078,14.358-4.172,23.374-6.218c43.577-9.906,101.652-15.359,163.571-15.359
	c61.904,0,119.995,5.453,163.557,15.359c9.015,2.046,16.749,4.14,23.373,6.218c11.812-3.531,21.718-7.406,29.405-11.546
	c25.842-28.241-9.516-49.342-29.233-53.826c-45.061-10.242-117.87-14.202-181.32-14.202c-63.451,0-144.26,1.086-189.32,11.327
	c-19.718,4.484-38.92,30.21-51.123,36.007C28.998,196.132,57.232,220.701,69.044,224.232z"/>
<g>
	<path style="fill:#ED5564;" d="M255.989,255.988c-63.466,0-123.229-5.64-168.306-15.882c-22.483-5.117-40.311-11.156-52.966-17.96
		c-15.968-8.578-24.062-18.726-24.062-30.155c0-11.43,8.094-21.578,24.062-30.155c12.656-6.805,30.483-12.843,52.966-17.96
		c45.077-10.242,104.84-15.882,168.306-15.882c63.451,0,123.214,5.641,168.291,15.882c22.482,5.117,40.31,11.155,52.966,17.96
		c15.968,8.578,24.061,18.726,24.061,30.155s-8.093,21.577-24.061,30.155c-12.656,6.804-30.483,12.843-52.966,17.96
		C379.203,250.348,319.44,255.988,255.989,255.988z M255.989,149.328c-61.919,0-119.995,5.453-163.571,15.351
		c-49.326,11.21-60.419,23.788-60.419,27.312s11.093,16.101,60.419,27.311c43.577,9.898,101.652,15.351,163.571,15.351
		c61.904,0,119.995-5.453,163.557-15.351c49.325-11.21,60.435-23.788,60.435-27.311s-11.109-16.102-60.435-27.312
		C375.984,154.781,317.893,149.328,255.989,149.328z"/>
	<path style="fill:#ED5564;" d="M490.635,181.327c-5.891,0-10.655,4.773-10.655,10.664c0,3.523-11.109,16.101-60.435,27.311
		c-43.562,9.898-101.652,15.351-163.557,15.351c-61.919,0-119.995-5.453-163.571-15.351c-49.326-11.21-60.419-23.788-60.419-27.311
		c0-5.891-4.781-10.664-10.671-10.664c-5.891,0-10.672,4.773-10.672,10.664v63.997c0,11.43,8.094,21.578,24.062,30.154
		c12.656,6.812,30.483,12.844,52.966,17.969c45.077,10.234,104.84,15.875,168.306,15.875c63.451,0,123.214-5.641,168.291-15.875
		c22.482-5.125,40.31-11.156,52.966-17.969c15.968-8.576,24.061-18.725,24.061-30.154v-63.997
		C501.306,186.1,496.526,181.327,490.635,181.327z"/>
</g>
<g>
	<path style="fill:#FFCE54;" d="M405.311,266.652c0,5.898-4.781,10.68-10.672,10.68s-10.656-4.781-10.656-10.68
		c0-5.891,4.766-10.664,10.656-10.664S405.311,260.762,405.311,266.652z"/>
	<path style="fill:#FFCE54;" d="M127.994,266.652c0,5.898-4.781,10.68-10.671,10.68c-5.891,0-10.671-4.781-10.671-10.68
		c0-5.891,4.781-10.664,10.671-10.664C123.213,255.988,127.994,260.762,127.994,266.652z"/>
	<path style="fill:#FFCE54;" d="M501.306,245.567h-10.671c-5.891,0-10.655-4.781-10.655-10.672c0-5.89,4.765-10.663,10.655-10.663
		h10.671c5.891,0,10.672,4.773,10.672,10.663C511.978,240.785,507.197,245.567,501.306,245.567z"/>
	<path style="fill:#FFCE54;" d="M21.327,245.567H10.655C4.765,245.567,0,240.786,0,234.895c0-5.89,4.766-10.663,10.655-10.663
		h10.672c5.89,0,10.671,4.773,10.671,10.663C31.998,240.785,27.217,245.567,21.327,245.567z"/>
</g>
<path style="fill:#F6BB42;" d="M255.989,298.642c-5.89,0-10.671-4.766-10.671-10.656v-10.654c0-5.898,4.781-10.68,10.671-10.68
	c5.891,0,10.672,4.781,10.672,10.68v10.654C266.661,293.878,261.88,298.642,255.989,298.642z"/>
<path style="fill:#FFCE54;" d="M255.989,277.332c-29.405,0-53.326,23.904-53.326,53.309c0,29.422,23.92,53.342,53.326,53.342
	s53.327-23.92,53.327-53.342C309.316,301.236,285.394,277.332,255.989,277.332z"/>
<path style="fill:#F6BB42;" d="M266.661,330.641c0,5.906-4.781,10.688-10.672,10.688c-5.89,0-10.671-4.781-10.671-10.688
	c0-5.875,4.781-10.654,10.671-10.654C261.88,319.986,266.661,324.766,266.661,330.641z"/>
</svg>