<?xml version="1.0" encoding="iso-8859-1"?>
<!-- Uploaded to: SVG Repo, www.svgrepo.com, Generator: SVG Repo Mixer Tools -->
<svg height="800px" width="800px" version="1.1" id="Layer_1" xmlns="http://www.w3.org/2000/svg" xmlns:xlink="http://www.w3.org/1999/xlink" 
	 viewBox="0 0 511.97 511.97" xml:space="preserve">
<path style="fill:#37BC9B;" d="M3.326,507.564c-4.172-4.156-4.172-10.875,0-15.031l105.323-105.339
	c4.141-4.156,10.891-4.156,15.046,0c4.156,4.172,4.156,10.906,0,15.062L18.356,507.564C14.2,511.736,7.482,511.736,3.326,507.564z"
	/>
<path style="fill:#E6E9ED;" d="M398.044,183.687c0-2.828-1.125-5.547-3.125-7.531l-60.186-60.185
	c-4.141-4.172-10.873-4.172-15.029,0L108.649,327.008c-2,2-3.125,4.703-3.125,7.531v60.186c0,2.938,1.203,5.609,3.125,7.531
	c1.922,1.905,4.578,3.108,7.516,3.108h60.185c2.828,0,5.531-1.125,7.531-3.108l211.038-211.069
	C396.919,189.203,398.044,186.484,398.044,183.687z"/>
<path style="fill:#48CFAD;" d="M105.525,394.725c0,2.938,1.203,5.609,3.125,7.531c1.922,1.905,4.578,3.108,7.516,3.108h60.185
	c2.828,0,5.531-1.125,7.531-3.108l127.884-127.901H161.303l-52.654,52.653c-2,2-3.125,4.703-3.125,7.531v60.186H105.525z"/>
<path style="fill:#E6E9ED;" d="M495.852,55.786c0-2.828-1.125-5.546-3.125-7.515l-30.093-30.108c-4.155-4.156-10.89-4.156-15.03,0
	L334.733,131.002c-2,2-3.109,4.703-3.109,7.531s1.109,5.531,3.109,7.531l30.109,30.092c4.155,4.156,10.89,4.156,15.046,0
	L492.727,63.301C494.727,61.317,495.852,58.598,495.852,55.786z"/>
<path style="fill:#CCD1D9;" d="M312.173,123.502c-4.155-4.172-4.155-10.905,0-15.062c4.156-4.141,10.891-4.141,15.046,0
	l75.231,75.231c4.156,4.156,4.156,10.891,0,15.046c-4.156,4.156-10.891,4.156-15.031,0L312.173,123.502z"/>
<g>
	<path style="fill:#434A54;" d="M266.628,319.495l-15.046-15.047c-4.141-4.156-10.891-4.141-15.046,0
		c-4.156,4.156-4.156,10.891,0,15.047l15.046,15.045L266.628,319.495z"/>
	<path style="fill:#434A54;" d="M221.489,364.632l-15.046-15.047c-4.156-4.156-10.891-4.156-15.031,0
		c-4.172,4.156-4.172,10.906,0,15.047l15.031,15.046L221.489,364.632z"/>
	<path style="fill:#434A54;" d="M311.782,274.324l-15.03-15.03c-4.172-4.172-10.891-4.156-15.047,0
		c-4.156,4.155-4.156,10.874,0,15.03l15.047,15.046L311.782,274.324z"/>
	<path style="fill:#434A54;" d="M356.905,229.216l-15.047-15.046c-4.156-4.156-10.891-4.156-15.046,0s-4.155,10.905,0,15.046
		l15.046,15.062L356.905,229.216z"/>
</g>
<path style="fill:#CCD1D9;" d="M432.543,18.163c-4.141-4.156-4.141-10.891,0-15.047c4.156-4.155,10.89-4.155,15.062,0l60.185,60.186
	c4.141,4.172,4.141,10.891,0,15.046c-4.156,4.156-10.905,4.156-15.062,0L432.543,18.163z"/>
<path style="fill:#37BC9B;" d="M344.296,511.97c-5.203,0-14.702-1.828-19.889-14.156c-3.047-7.234-4.469-17.733-4.469-33.046
	c0-41.138,33.467-74.605,74.605-74.605c41.14,0,74.606,33.468,74.606,74.605c0,14.922-1.484,25.171-4.672,32.265
	c-3.937,8.797-11.062,13.641-20.046,13.641c-7.202,0-14.624-3.109-22.498-6.391c-8.469-3.531-18.078-7.531-27.391-7.531
	c-9.297,0-18.937,4.359-27.436,8.219C359.155,508.58,351.655,511.97,344.296,511.97z"/>
<g>
	<path style="fill:#48CFAD;" d="M479.806,432.801c-17.938,0-31.983-18.733-31.983-42.639s14.046-42.624,31.983-42.624
		c17.92,0,31.967,18.719,31.967,42.624S497.726,432.801,479.806,432.801z"/>
	<path style="fill:#48CFAD;" d="M426.511,390.163c-17.921,0-31.968-18.718-31.968-42.624c0-23.905,14.047-42.638,31.968-42.638
		c17.937,0,31.968,18.732,31.968,42.638C458.479,371.445,444.448,390.163,426.511,390.163z"/>
	<path style="fill:#48CFAD;" d="M362.561,390.163c-17.922,0-31.969-18.718-31.969-42.624c0-23.905,14.047-42.638,31.969-42.638
		c17.937,0,31.982,18.732,31.982,42.638C394.544,371.445,380.498,390.163,362.561,390.163z"/>
	<path style="fill:#48CFAD;" d="M309.283,432.801c-17.938,0-31.984-18.733-31.984-42.639s14.047-42.624,31.984-42.624
		c17.92,0,31.966,18.719,31.966,42.624S327.203,432.801,309.283,432.801z"/>
</g>
</svg>