<?xml version="1.0" encoding="iso-8859-1"?>
<!-- Uploaded to: SVG Repo, www.svgrepo.com, Generator: SVG Repo Mixer Tools -->
<svg height="800px" width="800px" version="1.1" id="Layer_1" xmlns="http://www.w3.org/2000/svg" xmlns:xlink="http://www.w3.org/1999/xlink" 
	 viewBox="0 0 511.978 511.978" xml:space="preserve">
<path style="fill:#E2A437;" d="M418.999,428.263H93.135c0,0-84.919-395.641,162.931-395.641
	C503.915,32.623,418.999,428.263,418.999,428.263z"/>
<path style="fill:#E6E9ED;" d="M438.872,418.342l-1.812-0.531c-26.483-7.094-35.421-13.922-47.202-18.405
	c-41.811-15.938-52.686-27.405-55.467-32.827c-0.094-0.203-0.172-0.406-0.25-0.609l-0.359-48.544l-77.794-1.126l-77.778,1.125
	l-0.359,48.544c-0.078,0.203-0.172,0.406-0.266,0.609c-2.781,5.422-13.655,16.89-55.45,32.827
	c-11.781,4.483-20.734,11.312-47.217,18.405l-1.812,0.531c-24.093,7.969-40.296,40.983-40.296,66.2v27.437h223.178h223.179v-27.437
	C479.167,459.325,462.965,426.31,438.872,418.342z"/>
<polygon style="fill:#DA4453;" points="260.551,365.968 188.1,423.248 225.426,511.978 287.643,511.978 323.642,428.592 "/>
<path style="fill:#ED5564;" d="M314.628,437.309l14.358-10.499l5.28-60.529c-0.031-0.109-0.094-0.203-0.125-0.312l-0.359-48.544
	l-62.403-0.906l-93.293,17.811l-0.234,31.64c-0.078,0.203-0.172,0.406-0.266,0.609l21.124,69.622l57.373-40.92L314.628,437.309z"/>
<path style="fill:#FFCE54;" d="M266.66,447.981c0,5.891-4.766,10.672-10.672,10.672c-5.891,0-10.656-4.781-10.656-10.672
	s4.765-10.672,10.656-10.672C261.895,437.309,266.66,442.091,266.66,447.981z"/>
<path style="fill:#EAC6BB;" d="M393.624,223.662c0,89.372-85.198,171.618-137.557,171.618c-52.342,0-137.541-82.246-137.541-171.618
	c0-89.371,61.575-148.337,137.541-148.337C332.031,75.325,393.624,134.291,393.624,223.662z"/>
<path style="fill:#F6BB42;" d="M287.221,117.604l141.338,96.48c-12.593-93.169-55.404-181.462-172.493-181.462L287.221,117.604z"/>
<path style="fill:#FFCE54;" d="M266.098,159.055c45.654-32.827,84.965-65.123,105.183-82.199
	c-26.515-27.108-63.668-44.233-115.214-44.233c-136.729,0-172.181,120.417-176.493,228.382
	C126.993,248.255,189.553,214.069,266.098,159.055z"/>
<path style="fill:#E6E9ED;" d="M394.124,116.26L383.452,9.608C382.921,4.155,378.328,0,372.844,0H138.665
	c-5.484,0-10.078,4.155-10.625,9.608L117.385,116.26c-0.547,5.483,3.156,10.483,8.562,11.53
	c2.266,0.453,56.389,10.875,130.042,10.875c73.669,0,127.338-10.438,129.588-10.875C390.967,126.728,394.671,121.744,394.124,116.26
	z"/>
<g>
	<path style="fill:#ED5564;" d="M255.755,117.323c-17.641,0-31.999-14.344-31.999-31.999c0-17.64,14.358-31.999,31.999-31.999
		c17.64,0,31.999,14.359,31.999,31.999C287.754,102.979,273.393,117.323,255.755,117.323z"/>
	<path style="fill:#ED5564;" d="M266.426,31.998c0,5.891-4.781,10.672-10.672,10.672s-10.672-4.781-10.672-10.672
		s4.781-10.671,10.672-10.671S266.426,26.107,266.426,31.998z"/>
	<path style="fill:#ED5564;" d="M233.115,36.951c4.172,4.172,4.172,10.922,0,15.094c-4.156,4.155-10.905,4.155-15.077,0
		c-4.172-4.172-4.172-10.922,0-15.094C222.209,32.795,228.958,32.795,233.115,36.951z"/>
	<path style="fill:#ED5564;" d="M278.393,36.951c4.156-4.156,10.906-4.156,15.078,0c4.172,4.172,4.172,10.922,0,15.094
		c-4.172,4.155-10.922,4.155-15.078,0C274.221,47.873,274.221,41.123,278.393,36.951z"/>
</g>
<g>
	<polygon style="fill:#F5F7FA;" points="244.441,511.978 177.678,365.968 138.587,410.404 171.147,435.403 165.32,459.403 
		203.349,511.978 	"/>
	<polygon style="fill:#F5F7FA;" points="267.551,511.978 334.297,365.968 373.389,410.404 340.844,435.403 346.672,459.403 
		308.643,511.978 	"/>
</g>
</svg>